#!OML:ASF F:\twosubjects\two\Thursday\Session 1\Rory.ASF
:FULLY-SPECIFIED
:DEGREES
339
root 10.098 13.6939 11.7517 -143.252 -47.6595 164.904
lowerback 27.9956 -4.17474 6.58833
upperback 10.6009 -6.47127 -12.1752
thorax -5.56651 -3.69224 -14.6666
lowerneck -6.21793 -16.9703 -4.05676
upperneck -10.7052 -23.5726 36.1159
head 3.29848 -13.1067 9.83652
rclavicle -1.13705e-013 -2.38542e-014
rhumerus 5.43505 -11.4899 -69.9085
rradius 133.384
rwrist 27.542
rhand 13.1412 8.18422
rfingers 7.12502
rthumb 38.0992 -17.5879
lclavicle -1.13705e-013 -2.38542e-014
lhumerus 37.8967 -74.4506 39.2316
lradius 94.7806
lwrist -8.36915
lhand -30.0841 68.1045
lfingers 7.12502
lthumb -3.39872 -98.0571
rfemur -11.3078 -4.6993 3.21541
rtibia 72.8978
rfoot -20.3231 -15.1865
rtoes -31.1455
lfemur -92.2842 6.52794 -19.9124
ltibia 70.9552
lfoot 3.70428 -22.5197
ltoes 16.5491
340
root 10.099 13.7165 11.7638 -143.044 -47.5732 164.837
lowerback 28.0077 -4.24345 6.74066
upperback 10.6279 -6.56814 -12.4219
thorax -5.62983 -3.75124 -15.0068
lowerneck -5.8932 -16.8871 -3.80149
upperneck -11.0639 -23.4276 36.5354
head 3.14727 -13.1543 10.0131
rclavicle 1.10524e-013 6.99722e-014
rhumerus 5.34385 -11.2587 -70.4315
rradius 133.346
rwrist 27.692
rhand 13.047 8.07227
rfingers 7.12502
rthumb 38.0102 -17.7242
lclavicle 1.10524e-013 6.99722e-014
lhumerus 38.351 -74.4264 38.3566
lradius 94.815
lwrist -8.38529
lhand -29.8557 67.6666
lfingers 7.12502
lthumb -3.17812 -97.6226
rfemur -11.45 -4.31332 3.26029
rtibia 72.7329
rfoot -20.709 -15.1714
rtoes -30.2914
lfemur -92.2565 6.49186 -20.0058
ltibia 70.6709
lfoot 3.95022 -22.3611
ltoes 17.2057
341
root 10.0994 13.7871 11.7627 -143.054 -47.5157 164.816
lowerback 28.2359 -4.22556 6.59794
upperback 10.6882 -6.60162 -12.4717
thorax -5.66654 -3.7734 -14.9522
lowerneck -5.94806 -16.7532 -3.53711
upperneck -11.2174 -23.2229 36.5097
head 3.03102 -13.0906 10.0137
rclavicle 3.33958e-014 9.06458e-014
rhumerus 5.50693 -11.2017 -70.5883
rradius 133.093
rwrist 27.5462
rhand 13.1325 8.53606
rfingers 7.12502
rthumb 38.091 -17.2384
lclavicle 3.33958e-014 9.06458e-014
lhumerus 38.8948 -74.2794 37.7112
lradius 94.7672
lwrist -8.3831
lhand -29.4151 67.6911
lfingers 7.12502
lthumb -2.75261 -97.6531
rfemur -11.2946 -4.85944 2.93962
rtibia 72.2897
rfoot -20.6719 -14.4956
rtoes -29.9639
lfemur -91.7444 6.43525 -19.9921
ltibia 70.2065
lfoot 4.07813 -22.2092
ltoes 18.0815
342
root 10.1042 13.7343 11.7807 -143.073 -47.5489 164.861
lowerback 28.2726 -4.28587 6.74451
upperback 10.8115 -6.67595 -12.6084
thorax -5.60831 -3.81071 -15.1708
lowerneck -6.06236 -16.6612 -3.01938
upperneck -11.3696 -23.0821 36.3592
head 2.88167 -13.0602 9.92539
rclavicle 5.56597e-014 -1.66979e-014
rhumerus 5.7742 -10.9783 -71.0992
rradius 132.593
rwrist 28.5085
rhand 13.1223 9.18812
rfingers 7.12502
rthumb 38.0814 -16.5889
lclavicle 5.56597e-014 -1.66979e-014
lhumerus 39.5648 -74.22 36.8031
lradius 94.7426
lwrist -8.44122
lhand -29.7725 68.3719
lfingers 7.12502
lthumb -3.09772 -98.3291
rfemur -11.0834 -2.55838 4.03972
rtibia 72.1969
rfoot -21.5635 -16.3517
rtoes -29.0158
lfemur -92.0456 6.43175 -19.8851
ltibia 70.2133
lfoot 4.5259 -22.0845
ltoes 18.8597
343
root 10.096 13.825 11.7736 -142.926 -47.586 165.056
lowerback 28.0479 -4.33811 7.17463
upperback 10.8428 -6.65597 -12.7661
thorax -5.54263 -3.79743 -15.639
lowerneck -6.20992 -16.6431 -2.79394
upperneck -11.523 -23.0633 36.4696
head 2.84765 -13.0827 9.92638
rclavicle -6.36111e-015 6.20208e-014
rhumerus 5.73771 -10.6583 -71.6659
rradius 132.246
rwrist 29.9284
rhand 13.0015 8.96763
rfingers 7.12502
rthumb 37.9673 -16.8405
lclavicle -6.36111e-015 6.20208e-014
lhumerus 40.5453 -74.377 35.5778
lradius 94.5717
lwrist -8.52377
lhand -30.3266 68.102
lfingers 7.12502
lthumb -3.63281 -98.0508
rfemur -11.3426 -4.47838 3.36132
rtibia 71.6226
rfoot -21.2826 -15.0932
rtoes -29.5002
lfemur -91.7372 6.41068 -19.7804
ltibia 69.6729
lfoot 4.43986 -22.0649
ltoes 18.8661
344
root 10.1005 13.8005 11.794 -142.826 -47.5274 165.227
lowerback 28.0753 -4.2703 7.19055
upperback 10.7916 -6.54 -12.6684
thorax -5.55756 -3.73559 -15.5759
lowerneck -6.36058 -16.5931 -2.95738
upperneck -11.7272 -22.9633 36.6371
head 2.84758 -13.0532 10.0093
rclavicle 5.96354e-014 1.4233e-013
rhumerus 5.39968 -10.684 -71.3423
rradius 132.352
rwrist 30.1529
rhand 12.4012 8.1795
rfingers 7.12502
rthumb 37.4001 -17.7805
lclavicle 5.96354e-014 1.4233e-013
lhumerus 40.7238 -74.4044 35.5434
lradius 94.2716
lwrist -8.66312
lhand -29.7506 66.6432
lfingers 7.12502
lthumb -3.07661 -96.6008
rfemur -11.5118 -2.38049 4.401
rtibia 71.4418
rfoot -21.1985 -17.2452
rtoes -30.1681
lfemur -92.1254 6.51315 -19.7593
ltibia 69.5547
lfoot 4.76049 -21.939
ltoes 19.0122
345
root 10.0953 13.8674 11.8016 -142.596 -47.4806 165.117
lowerback 28.1598 -4.189 6.78667
upperback 10.7776 -6.48923 -12.381
thorax -5.50352 -3.70031 -15.0112
lowerneck -6.74336 -16.5435 -3.15282
upperneck -11.6042 -22.9224 36.5235
head 2.95071 -12.9673 9.96008
rclavicle 1.11319e-014 3.97569e-015
rhumerus 5.16204 -10.8029 -70.792
rradius 132.448
rwrist 30.4245
rhand 11.3643 9.4743
rfingers 7.12502
rthumb 36.4192 -16.7381
lclavicle 1.11319e-014 3.97569e-015
lhumerus 39.8968 -74.1439 36.7426
lradius 94.1505
lwrist -8.86491
lhand -29.1213 66.0982
lfingers 7.12502
lthumb -2.46888 -96.0636
rfemur -11.6309 -3.78951 3.67425
rtibia 70.9201
rfoot -20.6651 -16.3989
rtoes -31.1163
lfemur -91.819 6.39326 -19.906
ltibia 69.0167
lfoot 4.83214 -21.8243
ltoes 19.1372
346
root 10.0916 13.8978 11.8149 -142.334 -47.5287 164.997
lowerback 28.4242 -4.09265 6.46523
upperback 10.5877 -6.3674 -12.0297
thorax -5.69508 -3.63706 -14.4347
lowerneck -7.12391 -16.6703 -3.38242
upperneck -11.2021 -23.1598 36.2648
head 3.16706 -12.9554 9.80582
rclavicle 9.70069e-014 -9.54166e-015
rhumerus 4.80901 -10.9664 -70.3173
rradius 132.327
rwrist 30.8099
rhand 10.792 11.9413
rfingers 7.12502
rthumb 35.8772 -14.4053
lclavicle 9.70069e-014 -9.54166e-015
lhumerus 39.3469 -74.1913 37.8324
lradius 94.0395
lwrist -8.99332
lhand -29.2237 66.1014
lfingers 7.12502
lthumb -2.56772 -96.0657
rfemur -11.6893 -4.14727 3.54599
rtibia 70.5895
rfoot -20.3843 -16.4775
rtoes -31.6373
lfemur -91.7898 6.23905 -20.0422
ltibia 68.6534
lfoot 4.83347 -21.8038
ltoes 18.9068
347
root 10.0912 13.9233 11.8295 -142.286 -47.6617 165.097
lowerback 29.248 -3.92484 6.25085
upperback 10.0244 -6.05549 -11.4789
thorax -6.45448 -3.49362 -13.7249
lowerneck -6.98669 -16.9235 -3.82114
upperneck -11.0965 -23.4023 35.9007
head 3.21564 -13.0015 9.70853
rclavicle 7.15625e-014 1.27222e-014
rhumerus 3.94066 -11.0419 -69.2797
rradius 132.461
rwrist 30.1049
rhand 11.3426 11.88
rfingers 7.12502
rthumb 36.3986 -14.3376
lclavicle 7.15625e-014 1.27222e-014
lhumerus 38.8889 -74.7994 39.3634
lradius 93.7626
lwrist -9.05002
lhand -28.9777 66.1872
lfingers 7.12502
lthumb -2.33022 -96.1542
rfemur -11.726 -4.17516 3.80728
rtibia 70.2746
rfoot -20.0279 -17.0756
rtoes -32.5078
lfemur -91.7245 6.13926 -19.9855
ltibia 68.2158
lfoot 4.99817 -21.7487
ltoes 18.9997
348
root 10.0901 13.9495 11.8516 -142.067 -47.8714 165.112
lowerback 29.3026 -3.70048 5.71867
upperback 9.96009 -5.7642 -10.6696
thorax -6.29062 -3.31702 -12.6014
lowerneck -7.04134 -17.0218 -4.19243
upperneck -11.7811 -23.259 35.5529
head 2.98728 -12.9778 9.69395
rclavicle 1.59028e-014 1.59028e-013
rhumerus 4.09404 -10.8695 -68.1593
rradius 132.759
rwrist 28.8091
rhand 12.4602 9.91516
rfingers 7.12502
rthumb 37.4559 -16.0301
lclavicle 1.59028e-014 1.59028e-013
lhumerus 39.8087 -74.4448 40.0104
lradius 93.5308
lwrist -9.01659
lhand -28.6844 66.9248
lfingers 7.12502
lthumb -2.0469 -96.8947
rfemur -11.9085 -4.21454 4.05873
rtibia 70.0581
rfoot -20.3424 -17.386
rtoes -32.3182
lfemur -91.787 5.93022 -19.9531
ltibia 67.7831
lfoot 5.33719 -21.6575
ltoes 19.4129
349
root 10.0908 13.963 11.8782 -141.607 -47.8734 164.722
lowerback 29.4623 -3.70786 5.40547
upperback 9.84121 -5.81882 -10.4742
thorax -6.44328 -3.3432 -12.1677
lowerneck -6.83995 -16.9959 -4.30188
upperneck -12.1698 -23.069 35.3324
head 2.77931 -12.9369 9.71357
rclavicle 1.19271e-014 2.22639e-014
rhumerus 4.03608 -10.6579 -67.865
rradius 133.021
rwrist 27.9628
rhand 13.4044 8.95186
rfingers 7.12502
rthumb 38.3477 -16.7519
lclavicle 1.19271e-014 2.22639e-014
lhumerus 39.6452 -74.3349 40.7163
lradius 93.2188
lwrist -9.03751
lhand -28.9334 67.0922
lfingers 7.12502
lthumb -2.28736 -97.0597
rfemur -11.9777 -3.83542 3.99519
rtibia 69.8834
rfoot -21.3154 -17.2076
rtoes -30.2272
lfemur -91.7968 5.68516 -20.2507
ltibia 67.3229
lfoot 5.4942 -21.6189
ltoes 20.1151
350
root 10.0926 14.0029 11.8901 -141.41 -47.8072 164.564
lowerback 29.5349 -3.76944 5.35297
upperback 9.83839 -5.93079 -10.5684
thorax -6.51482 -3.40347 -12.1961
lowerneck -6.67493 -16.8908 -4.35735
upperneck -12.3495 -22.8713 35.3557
head 2.6727 -12.8814 9.79061
rclavicle 6.99722e-014 5.52621e-014
rhumerus 4.04942 -10.5404 -68.198
rradius 133.127
rwrist 27.7738
rhand 13.6983 8.88628
rfingers 7.12502
rthumb 38.625 -16.7401
lclavicle 6.99722e-014 5.52621e-014
lhumerus 39.186 -74.2559 40.9094
lradius 92.7648
lwrist -9.11457
lhand -28.6877 65.7715
lfingers 7.12502
lthumb -2.05013 -95.7413
rfemur -11.9785 -3.60955 3.96215
rtibia 69.5301
rfoot -21.9371 -16.9248
rtoes -28.1822
lfemur -91.5028 5.60256 -20.3705
ltibia 66.7591
lfoot 5.62398 -21.5313
ltoes 21.0662
351
root 10.0904 14.0764 11.8906 -141.361 -47.9795 164.85
lowerback 29.1251 -4.02157 5.91701
upperback 10.0162 -6.14554 -10.8303
thorax -6.29631 -3.50397 -12.7628
lowerneck -6.68553 -16.7795 -4.24106
upperneck -12.4586 -22.7536 35.6634
head 2.65806 -12.875 9.8971
rclavicle 1.03368e-014 8.50798e-014
rhumerus 3.93075 -10.4186 -69.1083
rradius 133.246
rwrist 27.8457
rhand 12.9743 8.81142
rfingers 7.12502
rthumb 37.9416 -17.0037
lclavicle 1.03368e-014 8.50798e-014
lhumerus 39.5263 -73.9578 39.885
lradius 92.5574
lwrist -9.12775
lhand -28.2129 64.9097
lfingers 7.12502
lthumb -1.59152 -94.8835
rfemur -12.1453 -4.00084 4.26321
rtibia 68.9368
rfoot -21.7937 -17.171
rtoes -28.4195
lfemur -91.2503 5.54006 -20.0978
ltibia 66.13
lfoot 6.62508 -21.1467
ltoes 22.645
